<svg xmlns="http://www.w3.org/2000/svg" viewBox="0 0 800 600" width="800" height="600" role="img">
  <defs>
    <linearGradient id="bg-creative" x1="0" y1="0" x2="1" y2="1">
      <stop offset="0%" stop-color="#161534"/>
      <stop offset="55%" stop-color="#111228"/>
      <stop offset="100%" stop-color="#0C0D1C"/>
    </linearGradient>
    <radialGradient id="glow-a-creative" cx="0.5" cy="0.5" r="0.5">
      <stop offset="0%" stop-color="#8B5CF6" stop-opacity="0.5"/>
      <stop offset="100%" stop-color="#8B5CF6" stop-opacity="0"/>
    </radialGradient>
    <radialGradient id="glow-b-creative" cx="0.5" cy="0.5" r="0.5">
      <stop offset="0%" stop-color="#22D3EE" stop-opacity="0.38"/>
      <stop offset="100%" stop-color="#22D3EE" stop-opacity="0"/>
    </radialGradient>
    <linearGradient id="stroke-creative" x1="0" y1="0" x2="1" y2="1">
      <stop offset="0%" stop-color="#22D3EE"/>
      <stop offset="50%" stop-color="#8B5CF6"/>
      <stop offset="100%" stop-color="#643CC8"/>
    </linearGradient>
    <pattern id="dots-creative" width="32" height="32" patternUnits="userSpaceOnUse">
      <circle cx="2" cy="2" r="1.25" fill="#ffffff" fill-opacity="0.05"/>
    </pattern>
  </defs>
  <rect width="800" height="600" fill="url(#bg-creative)"/>
  <rect width="800" height="600" fill="url(#dots-creative)"/>
  <ellipse cx="640" cy="90" rx="340" ry="290" fill="url(#glow-a-creative)"/>
  <ellipse cx="120" cy="540" rx="340" ry="300" fill="url(#glow-b-creative)"/>
  <g fill="none" stroke="url(#stroke-creative)" stroke-width="9" stroke-linecap="round" stroke-linejoin="round" opacity="0.45">
    <path d="M400 165 a195 195 0 1 0 0 390 a44 44 0 0 0 34 -71 l-30 -30 a22 22 0 0 1 17 -37 l44 0 a44 44 0 0 0 44 -44 a195 195 0 0 0 -109 -208 z"/>
    <circle cx="290" cy="245" r="20"/>
    <circle cx="365" cy="205" r="20" opacity="0.8"/>
    <circle cx="275" cy="365" r="20" opacity="0.8"/>
  </g>
</svg>
