<svg xmlns="http://www.w3.org/2000/svg" viewBox="0 0 800 600" width="800" height="600" role="img">
  <defs>
    <linearGradient id="bg-community" x1="0" y1="0" x2="1" y2="1">
      <stop offset="0%" stop-color="#141628"/>
      <stop offset="55%" stop-color="#0F1120"/>
      <stop offset="100%" stop-color="#0B0D18"/>
    </linearGradient>
    <radialGradient id="glow-a-community" cx="0.5" cy="0.5" r="0.5">
      <stop offset="0%" stop-color="#F566AC" stop-opacity="0.55"/>
      <stop offset="100%" stop-color="#F566AC" stop-opacity="0"/>
    </radialGradient>
    <radialGradient id="glow-b-community" cx="0.5" cy="0.5" r="0.5">
      <stop offset="0%" stop-color="#22D3EE" stop-opacity="0.42"/>
      <stop offset="100%" stop-color="#22D3EE" stop-opacity="0"/>
    </radialGradient>
    <linearGradient id="stroke-community" x1="0" y1="0" x2="1" y2="1">
      <stop offset="0%" stop-color="#F566AC"/>
      <stop offset="50%" stop-color="#7549E6"/>
      <stop offset="100%" stop-color="#22D3EE"/>
    </linearGradient>
    <pattern id="dots-community" width="34" height="34" patternUnits="userSpaceOnUse">
      <circle cx="2" cy="2" r="1.3" fill="#ffffff" fill-opacity="0.05"/>
    </pattern>
  </defs>
  <rect width="800" height="600" fill="url(#bg-community)"/>
  <rect width="800" height="600" fill="url(#dots-community)"/>
  <ellipse cx="150" cy="120" rx="330" ry="290" fill="url(#glow-a-community)"/>
  <ellipse cx="700" cy="520" rx="340" ry="300" fill="url(#glow-b-community)"/>
  <g fill="none" stroke="url(#stroke-community)" stroke-width="9" stroke-linecap="round" stroke-linejoin="round" opacity="0.5">
    <path d="M150 160 h330 a26 26 0 0 1 26 26 v150 a26 26 0 0 1 -26 26 h-190 l-70 62 v-62 h-70 a26 26 0 0 1 -26 -26 v-150 a26 26 0 0 1 26 -26 z" opacity="0.6"/>
    <path d="M330 280 h320 a26 26 0 0 1 26 26 v140 a26 26 0 0 1 -26 26 h-80 v66 l-72 -66 h-168 a26 26 0 0 1 -26 -26 v-140 a26 26 0 0 1 26 -26 z"/>
  </g>
</svg>
